<mxfile host="app.diagrams.net" modified="2024-07-23T17:36:59.038Z" agent="Mozilla/5.0 (X11; Ubuntu; Linux x86_64; rv:128.0) Gecko/20100101 Firefox/128.0" etag="ttD7Y3rAM1hxpCuVRZRt" version="24.7.1" type="github">
  <diagram name="Page-1" id="bIes6_ukVuZWeVdDMZBp">
    <mxGraphModel dx="1048" dy="432" grid="1" gridSize="10" guides="1" tooltips="1" connect="1" arrows="1" fold="1" page="1" pageScale="1" pageWidth="70" pageHeight="120" math="1" shadow="0">
      <root>
        <mxCell id="0" />
        <mxCell id="1" parent="0" />
        <mxCell id="90_ij9PBLQ9bhybGQrYb-5" value="" style="edgeStyle=orthogonalEdgeStyle;rounded=0;orthogonalLoop=1;jettySize=auto;html=1;" edge="1" parent="1" source="90_ij9PBLQ9bhybGQrYb-1" target="90_ij9PBLQ9bhybGQrYb-2">
          <mxGeometry relative="1" as="geometry" />
        </mxCell>
        <mxCell id="90_ij9PBLQ9bhybGQrYb-1" value="$$\text{Entrada de} \vspace{1mm} \text{Datos}$$" style="rounded=1;whiteSpace=wrap;html=1;" vertex="1" parent="1">
          <mxGeometry x="-160" y="30" width="120" height="60" as="geometry" />
        </mxCell>
        <mxCell id="90_ij9PBLQ9bhybGQrYb-6" value="" style="edgeStyle=orthogonalEdgeStyle;rounded=0;orthogonalLoop=1;jettySize=auto;html=1;" edge="1" parent="1" source="90_ij9PBLQ9bhybGQrYb-2" target="90_ij9PBLQ9bhybGQrYb-3">
          <mxGeometry relative="1" as="geometry" />
        </mxCell>
        <mxCell id="90_ij9PBLQ9bhybGQrYb-2" value="$$\text{Preprocesamiento}$$" style="rounded=1;whiteSpace=wrap;html=1;" vertex="1" parent="1">
          <mxGeometry y="30" width="120" height="60" as="geometry" />
        </mxCell>
        <mxCell id="90_ij9PBLQ9bhybGQrYb-7" value="" style="edgeStyle=orthogonalEdgeStyle;rounded=0;orthogonalLoop=1;jettySize=auto;html=1;" edge="1" parent="1" source="90_ij9PBLQ9bhybGQrYb-3" target="90_ij9PBLQ9bhybGQrYb-4">
          <mxGeometry relative="1" as="geometry" />
        </mxCell>
        <mxCell id="90_ij9PBLQ9bhybGQrYb-3" value="$$$$" style="rounded=1;whiteSpace=wrap;html=1;" vertex="1" parent="1">
          <mxGeometry x="160" y="30" width="120" height="60" as="geometry" />
        </mxCell>
        <mxCell id="90_ij9PBLQ9bhybGQrYb-4" value="" style="rounded=1;whiteSpace=wrap;html=1;" vertex="1" parent="1">
          <mxGeometry x="320" y="30" width="120" height="60" as="geometry" />
        </mxCell>
      </root>
    </mxGraphModel>
  </diagram>
</mxfile>
